<svg id="Layer_1" enable-background="new 0 0 50 50" height="512" viewBox="0 0 50 50" width="512" xmlns="http://www.w3.org/2000/svg"><g><g><g><path d="m47.4688 7.0253c0 .911-.8497 1.6468-1.8834 1.6468h-7.3146c-1.0337 0-1.8747-.7358-1.8747-1.6468 0-.7622.587-1.4104 1.4016-1.5943-.3033-1.2118 1.0719-2.1389 2.1199-1.8396.6394-1.3987 2.8773-1.3697 3.4953.0088 1.3608-.5101 2.7048.5509 2.3214 1.7783.9636.0699 1.7345.7708 1.7345 1.6468z" fill="#eeeded"/><path d="m9.3979 12.6654c0 .6606-.6063 1.1891-1.3524 1.1891h-5.2696c-.7461 0-1.3601-.5285-1.3601-1.1891 0-.5518.4275-1.0182 1.0104-1.1503-.2007-.9046.7823-1.5335 1.5311-1.329.4632-1.0155 2.1015-.9714 2.5182.0078.9197-.3679 1.9822.3729 1.6788 1.2824.6917.0544 1.2436.5596 1.2436 1.1891z" fill="#eeeded"/><g><g><path d="m46.8007 18.6381h-43.6059c1.2343-1.9436 3.7443-5.8613 5.1315-8.0272h33.3307c.066.1034.9997 1.563 5.1437 8.0272z" fill="#a77a4e"/><path d="m3.986 18.637h42.023v26.037h-42.023z" fill="#fccc67"/><g><g><g><path d="m14.3721 27.9491v.4762h-6.1614v-.4762h.1194v-6.9053h5.9226v6.9053z" fill="#ebb760"/></g><g><path d="m8.276 21.045h5.633v6.75h-5.633z" fill="#4a8bc9"/></g><g><path d="m10.099 21.045h.225v6.749h-.225z" fill="#fff"/></g><g><path d="m11.934 21.045h.225v6.749h-.225z" fill="#fff"/></g><g><path d="m13.9691 27.911h-5.789v-6.9832h5.789zm-5.6325-.2327h5.476v-6.5178h-5.476z" fill="#fff"/></g><g opacity=".3"><g><path d="m11.4382 21.0446-2.1746 6.7501h-.3344l2.1746-6.7501z" fill="#fff"/></g></g><g opacity=".3"><g><path d="m10.8447 21.0446-2.1731 6.7501h-.3956v-.3936l2.0479-6.3565z" fill="#fff"/></g></g><g opacity=".3"><g><path d="m13.9088 21.0446v.3894l-2.0493 6.3607h-.3345l2.1746-6.7501z" fill="#fff"/></g></g><g opacity=".3"><g><path d="m13.4406 21.0446-2.1732 6.7501h-.5209l2.1732-6.7501z" fill="#fff"/></g></g><g><path d="m8.063 27.678h6.024v.466h-6.024z" fill="#a77a4e"/></g></g><g><g><path d="m41.9324 27.9491v.4762h-6.1613v-.4762h.1194v-6.9053h5.9225v6.9053z" fill="#ebb760"/></g><g><path d="m35.836 21.045h5.633v6.75h-5.633z" fill="#4a8bc9"/></g><g><path d="m37.66 21.045h.225v6.749h-.225z" fill="#fff"/></g><g><path d="m39.494 21.045h.225v6.749h-.225z" fill="#fff"/></g><g><path d="m41.5294 27.911h-5.789v-6.9832h5.789zm-5.6324-.2327h5.476v-6.5178h-5.476z" fill="#fff"/></g><g opacity=".3"><g><path d="m38.9986 21.0446-2.1746 6.7501h-.3345l2.1746-6.7501z" fill="#fff"/></g></g><g opacity=".3"><g><path d="m38.4051 21.0446-2.1732 6.7501h-.3956v-.3936l2.0479-6.3565z" fill="#fff"/></g></g><g opacity=".3"><g><path d="m41.4691 21.0446v.3894l-2.0493 6.3607h-.3344l2.1745-6.7501z" fill="#fff"/></g></g><g opacity=".3"><g><path d="m41.0009 21.0446-2.1731 6.7501h-.5209l2.1732-6.7501z" fill="#fff"/></g></g><g><path d="m35.623 27.678h6.024v.466h-6.024z" fill="#a77a4e"/></g></g><g><g><path d="m28.7554 27.9491v.4762h-7.3393v-.4762h.1422v-6.9053h7.0549v6.9053z" fill="#ebb760"/></g><g><path d="m21.494 21.045h6.71v6.75h-6.71z" fill="#4a8bc9"/></g><g><path d="m23.666 21.045h.268v6.749h-.268z" fill="#fff"/></g><g><path d="m25.851 21.045h.268v6.749h-.268z" fill="#fff"/></g><g><path d="m28.2754 27.911h-6.8958v-6.9832h6.8958zm-6.7094-.2327h6.5229v-6.5178h-6.5229z" fill="#fff"/></g><g opacity=".3"><g><path d="m25.2606 21.0446-2.5903 6.7501h-.3984l2.5903-6.7501z" fill="#fff"/></g></g><g opacity=".3"><g><path d="m24.5537 21.0446-2.5886 6.7501h-.4713v-.3936l2.4394-6.3565z" fill="#fff"/></g></g><g opacity=".3"><g><path d="m28.2036 21.0446v.3894l-2.4412 6.3607h-.3984l2.5904-6.7501z" fill="#fff"/></g></g><g opacity=".3"><g><path d="m27.6458 21.0446-2.5886 6.7501h-.6205l2.5887-6.7501z" fill="#fff"/></g></g><g><path d="m21.24 27.678h7.176v.466h-7.176z" fill="#a77a4e"/></g></g></g><g><path d="m6.153 41.539h13.023v.79h-13.023z" fill="#a77a4e"/><path d="m6.218 32.788h12.895v.963h-12.895z" fill="#a77a4e"/><path d="m6.921 33.75h11.49v7.791h-11.49z" fill="#eeeded"/><path d="m7.795 34.202h2.722v6.668h-2.722z" fill="#4a8bc9"/><path d="m11.305 34.202h2.722v6.668h-2.722z" fill="#4a8bc9"/><path d="m14.814 34.202h2.722v6.668h-2.722z" fill="#4a8bc9"/><g fill="#fff"><path d="m10.5167 34.2021v.3846l-1.7639 6.2829h-.2878l1.8717-6.6675z" opacity=".3"/><path d="m10.1137 34.2021-1.8705 6.6675h-.4483l1.8705-6.6675z" opacity=".3"/><path d="m14.0255 34.2021v.3846l-1.7639 6.2829h-.2879l1.8717-6.6675z" opacity=".3"/><path d="m13.6225 34.2021-1.8705 6.6675h-.4483l1.8705-6.6675z" opacity=".3"/><path d="m17.5343 34.2021v.3846l-1.7639 6.2829h-.2879l1.8717-6.6675z" opacity=".3"/><path d="m17.1313 34.2021-1.8705 6.6675h-.4483l1.8705-6.6675z" opacity=".3"/></g></g><g><path d="m30.784 41.539h13.023v.79h-13.023z" fill="#a77a4e"/><path d="m30.849 32.788h12.895v.963h-12.895z" fill="#a77a4e"/><path d="m31.551 33.75h11.49v7.791h-11.49z" fill="#eeeded"/><path d="m32.426 34.202h2.722v6.668h-2.722z" fill="#4a8bc9"/><path d="m35.935 34.202h2.722v6.668h-2.722z" fill="#4a8bc9"/><path d="m39.445 34.202h2.722v6.668h-2.722z" fill="#4a8bc9"/><g fill="#fff"><path d="m35.1474 34.2021v.3846l-1.7639 6.2829h-.2878l1.8717-6.6675z" opacity=".3"/><path d="m34.7444 34.2021-1.8704 6.6675h-.4484l1.8705-6.6675z" opacity=".3"/><path d="m38.6562 34.2021v.3846l-1.7639 6.2829h-.2878l1.8717-6.6675z" opacity=".3"/><path d="m38.2532 34.2021-1.8705 6.6675h-.4483l1.8705-6.6675z" opacity=".3"/><path d="m42.165 34.2021v.3846l-1.7639 6.2829h-.2879l1.8717-6.6675z" opacity=".3"/><path d="m41.762 34.2021-1.8705 6.6675h-.4483l1.8705-6.6675z" opacity=".3"/></g></g></g><g><path d="m45.481 40.251h.616v3.464h-.616z" fill="#a77a4e"/><path d="m47.722 40.251h.616v3.464h-.616z" fill="#a77a4e"/><path d="m44.0064 39.1677c0 1.0586.8023 1.9153 1.7868 1.9153.5865 0 1.1092-.3029 1.4313-.772l.003-.0033c.2218-.3192.3525-.7133.3525-1.14 0-1.0586-.7992-1.9153-1.7868-1.9153-.4285 0-.8235.1629-1.1335.4332-.003 0-.003 0-.003.0033-.395.3518-.6503.8828-.6503 1.4788z" fill="#9ccc65"/><path d="m44.0064 39.1677c0 1.0586.8023 1.9153 1.7868 1.9153.5865 0 1.1092-.3029 1.4313-.772l.003-.0033c.2218-.3192.3525-.7133.3525-1.14 0-1.0586-.7992-1.9153-1.7868-1.9153-.4285 0-.8235.1629-1.1335.4332-.003 0-.003 0-.003.0033-.395.3518-.6503.8828-.6503 1.4788z" fill="#8ec163"/><path d="m44.3012 38.8322c0 1.0586.8023 1.9153 1.7868 1.9153.4346 0 .8266-.1661 1.1365-.4365l.003-.0033c.2218-.3192.3525-.7133.3525-1.14 0-1.0586-.7992-1.9153-1.7868-1.9153-.4285 0-.8235.1629-1.1335.4332-.003 0-.003 0-.003.0033-.2248.3192-.3555.7134-.3555 1.1433z" fill="#9ccc65"/><path d="m47.0951 38.2173c0 1.4006.4215 2.5302.9273 2.5302.1124 0 .2389-.0603.3373-.1657.3513-.3614.6042-1.2801.6042-2.3644 0-1.4007-.4216-2.5452-.9415-2.5452-.014 0-.028 0-.0421.015-.4918.0451-.8852 1.1746-.8852 2.5301z" fill="#7ba452"/><path d="m47.3621 38.0667c0 1.4006.4215 2.5302.9273 2.5302.0281 0 .0422 0 .0703-.0151.3513-.3614.6042-1.2801.6042-2.3644 0-1.4007-.4216-2.5452-.9415-2.5452-.014 0-.028 0-.0421.015-.3513.3313-.6182 1.2801-.6182 2.3795z" fill="#8ec163"/><path d="m3.927 40.299h.607v3.417h-.607z" fill="#a77a4e"/><path d="m1.717 40.299h.607v3.417h-.607z" fill="#a77a4e"/><path d="m5.9891 39.2299c0 1.0441-.7913 1.8891-1.7624 1.8891-.5785 0-1.094-.2988-1.4117-.7614l-.003-.0032c-.2188-.3148-.3477-.7036-.3477-1.1244 0-1.0441.7883-1.8891 1.7624-1.8891.4226 0 .8122.1606 1.118.4273.003 0 .003 0 .003.0032.3896.3469.6414.8706.6414 1.4585z" fill="#9ccc65"/><path d="m5.9891 39.2299c0 1.0441-.7913 1.8891-1.7624 1.8891-.5785 0-1.094-.2988-1.4117-.7614l-.003-.0032c-.2188-.3148-.3477-.7036-.3477-1.1244 0-1.0441.7883-1.8891 1.7624-1.8891.4226 0 .8122.1606 1.118.4273.003 0 .003 0 .003.0032.3896.3469.6414.8706.6414 1.4585z" fill="#8ec163"/><path d="m5.6983 38.899c0 1.0441-.7913 1.8891-1.7624 1.8891-.4286 0-.8152-.1638-1.121-.4305l-.003-.0032c-.2188-.3148-.3477-.7036-.3477-1.1244 0-1.0441.7883-1.8891 1.7624-1.8891.4226 0 .8122.1606 1.118.4273.003 0 .003 0 .003.0032.2218.3148.3507.7035.3507 1.1276z" fill="#9ccc65"/><path d="m2.9426 38.2925c0 1.3815-.4157 2.4956-.9146 2.4956-.1109 0-.2357-.0595-.3327-.1635-.3465-.3565-.5959-1.2626-.5959-2.3321 0-1.3816.4158-2.5104.9286-2.5104.0138 0 .0277 0 .0415.0148.4851.0446.8731 1.1587.8731 2.4956z" fill="#7ba452"/><path d="m2.6793 38.1439c0 1.3815-.4157 2.4956-.9146 2.4956-.0277 0-.0416 0-.0694-.0149-.3465-.3565-.5959-1.2626-.5959-2.3321 0-1.3816.4158-2.5104.9286-2.5104.0138 0 .0277 0 .0415.0148.3465.3268.6098 1.2627.6098 2.347z" fill="#8ec163"/><path d="m1.035 43.716h47.93v3.73h-47.93z" fill="#a5cf65"/></g></g></g><path d="m45.0577 44.3721c0 .8403-1.32 1.2286-1.9701.5424-.2392.0869-.6619.0844-1.0293-.0886-.975.9027-2.8002.327-2.8002-.8522 0-1.1327 1.6679-1.7014 2.6785-.9629.7547-.4151 1.6908-.1427 2.0033.4648h.0111c.6197 0 1.1067.3985 1.1067.8965z" fill="#8ec163"/><path d="m45.0409 44.5236c-.1373.7783-1.343 1.0819-1.97.4981-.1385.0173-.5791.1345-.9961-.0442-1.0622.8449-2.8735.1763-2.8112-1.0072.0417 1.1708 1.8344 1.6434 2.7005.7527l.0664-.0664c.286.1226.4404.2585 1.1068.166l.0221.0222c.5225.613 1.6795.4199 1.8815-.3212z" fill="#7ba452"/><path d="m10.8655 44.3721c0 .487-.487.8966-1.1068.8966-.3542 0-.6641-.1439-.8633-.3542-.1217.0442-.2435.0553-.3763.0553-.2435 0-.4648-.0553-.653-.1439-.2989.2767-.7194.4427-1.1953.4427-.8854 0-1.6048-.5866-1.6048-1.295 0-.7194.7194-1.2949 1.6048-1.2949.4095 0 .7858.1217 1.0736.332.2213-.1217.487-.1992.7747-.1992.5534 0 1.0294.2767 1.2286.664h.0111c.6198.0001 1.1067.3986 1.1067.8966z" fill="#8ec163"/><path d="m10.8488 44.5236c-.0664.3763-.4095.6641-.7748.7527-.3984.1106-.8743.0442-1.1953-.2546-.1771.0222-.3542.0775-.5091.0553-.166-.011-.332-.0332-.487-.0996-.487.3873-1.151.4537-1.7155.2989-.5866-.166-1.1289-.6752-1.0957-1.3061.0221.6198.5755 1.0625 1.1289 1.1732.5645.1218 1.1843-.0221 1.5717-.4205l.0664-.0664.0885.0443c.1439.0775.2989.1217.4649.1439.1549.0332.3099-.0222.4648-.0222h.0886l.0221.0222c.2546.2988.6862.4206 1.0847.3431.343-.0554.6972-.2989.7968-.6642z" fill="#7ba452"/></g><g><g><path d="m22.099 33.909h5.802v9.807h-5.802z" fill="#676767"/></g><g><path d="m23.1464 38.2312c0 .2032-.1564.3595-.3596.3595-.1954 0-.3596-.1563-.3596-.3595 0-.1954.1642-.3595.3596-.3595.2033 0 .3596.1642.3596.3595z" fill="#b5b5b6"/></g><g><path d="m23.488 34.946h3.024v5.233h-3.024z" fill="#95c6ea"/></g><g><path d="m23.42 41.651h3.164v1.345h-3.164z" fill="#535352"/></g></g></g></svg>