<svg height="512" viewBox="0 0 88 88" width="512" xmlns="http://www.w3.org/2000/svg"><g id="Hotel"><path d="m44 11a1 1 0 0 1 -1-1v-8a1 1 0 0 1 2 0v8a1 1 0 0 1 -1 1z" fill="#fcb641"/><rect fill="#e65039" height="7" rx="1" width="14" x="37" y="9"/><rect fill="#fcb641" height="7" rx="1" width="26" x="31" y="14"/><rect fill="#e8792e" height="62" rx="1" width="20" x="6" y="25"/><rect fill="#e8792e" height="62" rx="1" width="20" x="62" y="25"/><path d="m63 33h19v-7a1 1 0 0 0 -1-1h-18a1 1 0 0 0 -1 1v6a1 1 0 0 0 1 1z" fill="#c12e1f"/><path d="m25 25h-18a1 1 0 0 0 -1 1v7h19a1 1 0 0 0 1-1v-6a1 1 0 0 0 -1-1z" fill="#c12e1f"/><path d="m63 19h-38a1 1 0 0 0 -1 1v67h40v-67a1 1 0 0 0 -1-1z" fill="#fcb641"/><path d="m63 19h-38a1 1 0 0 0 -1 1v7h40v-7a1 1 0 0 0 -1-1z" fill="#e65039"/><path d="m52 63h-16a1 1 0 0 0 -1 1v23h18v-23a1 1 0 0 0 -1-1z" fill="#e7eaf7"/><path d="m45 87v-19a1 1 0 0 0 -2 0v19z" fill="#ced4ea"/><g fill="#e7eaf7"><rect height="8" rx="1" width="8" x="40" y="41"/><rect height="8" rx="1" width="8" x="40" y="30"/><rect height="8" rx="1" width="8" x="40" y="52"/><rect height="8" rx="1" width="8" x="29" y="41"/><rect height="8" rx="1" width="8" x="29" y="30"/><rect height="8" rx="1" width="8" x="29" y="52"/><rect height="8" rx="1" width="8" x="51" y="41"/><rect height="8" rx="1" width="8" x="51" y="30"/><rect height="8" rx="1" width="8" x="51" y="52"/></g><rect fill="#ced4ea" height="8" rx="1" width="8" x="69" y="38"/><rect fill="#ced4ea" height="8" rx="1" width="8" x="69" y="49"/><rect fill="#ced4ea" height="8" rx="1" width="8" x="69" y="60"/><rect fill="#ced4ea" height="8" rx="1" width="8" x="69" y="71"/><rect fill="#ced4ea" height="8" rx="1" width="8" x="11" y="38"/><rect fill="#ced4ea" height="8" rx="1" width="8" x="11" y="49"/><rect fill="#ced4ea" height="8" rx="1" width="8" x="11" y="60"/><rect fill="#ced4ea" height="8" rx="1" width="8" x="11" y="71"/><path d="m52 63h-16a1 1 0 0 0 -1 1v5h18v-5a1 1 0 0 0 -1-1z" fill="#e65039"/></g></svg>