<svg height="512pt" viewBox="0 -4 512 512" width="512pt" xmlns="http://www.w3.org/2000/svg"><path d="m502.730469 158.929688-149.628907 8.828124-43.339843-105.753906-.179688-.175781h120.410157c5.5-.023437 10.742187 2.324219 14.386718 6.441406l65.503906 76.269531c2.179688 2.6875 2.59375 6.398438 1.050782 9.496094-1.539063 3.097656-4.746094 5.011719-8.203125 4.894532zm0 0" fill="#7d6599"/><path d="m202.417969 61.828125-52.347657 105.929687-140.800781-8.828124c-3.457031.117187-6.664062-1.796876-8.203125-4.894532-1.542968-3.097656-1.128906-6.808594 1.050782-9.496094l65.503906-76.269531c3.644531-4.117187 8.886718-6.464843 14.386718-6.441406zm0 0" fill="#7d6599"/><path d="m114.757812 158.929688h282.484376v317.792968h-282.484376zm0 0" fill="#3d324c"/><path d="m379.585938 158.929688h-250.703126l73.535157-97.101563 39.632812-54.996094c3.347657-4.3125 8.496094-6.832031 13.949219-6.832031s10.601562 2.519531 13.949219 6.832031l39.632812 54.996094.179688.175781zm0 0" fill="#804169"/><path d="m17.65625 158.929688h114.757812v317.792968h-114.757812zm0 0" fill="#804169"/><path d="m308.964844 361.964844v114.757812h-105.929688v-114.757812c0-19.5 15.808594-35.3125 35.308594-35.3125h35.3125c19.5 0 35.308594 15.8125 35.308594 35.3125zm0 0" fill="#af8066"/><path d="m247.171875 326.652344h17.65625v150.070312h-17.65625zm0 0" fill="#804537"/><path d="m203.035156 361.964844h105.929688v17.65625h-105.929688zm0 0" fill="#804537"/><path d="m203.035156 414.929688h105.929688v17.65625h-105.929688zm0 0" fill="#804537"/><path d="m167.722656 238.378906h61.792969v52.964844h-61.792969zm0 0" fill="#90bae1"/><path d="m52.964844 379.621094h44.136718v52.964844h-44.136718zm0 0" fill="#90bae1"/><path d="m52.964844 247.207031h44.136718v52.964844h-44.136718zm0 0" fill="#90bae1"/><path d="m494.34375 476.722656h-114.757812v-317.792968h114.757812zm0 0" fill="#804169"/><path d="m414.898438 379.621094h44.136718v52.964844h-44.136718zm0 0" fill="#90bae1"/><path d="m414.898438 247.207031h44.136718v52.964844h-44.136718zm0 0" fill="#90bae1"/><path d="m282.484375 238.378906h61.792969v52.964844h-61.792969zm0 0" fill="#90bae1"/><path d="m8.828125 467.894531h494.34375c4.875 0 8.828125 3.953125 8.828125 8.828125v17.65625c0 4.875-3.953125 8.828125-8.828125 8.828125h-494.34375c-4.875 0-8.828125-3.953125-8.828125-8.828125v-17.65625c0-4.875 3.953125-8.828125 8.828125-8.828125zm0 0" fill="#71c285"/><g fill="#b0d3f0"><path d="m229.515625 225.136719v30.898437h-61.792969v-30.898437c0-17.0625 13.835938-30.894531 30.898438-30.894531 17.027344.082031 30.8125 13.863281 30.894531 30.894531zm0 0"/><path d="m97.101562 353.136719v44.136719h-44.136718v-44.136719c.03125-9.738281 7.917968-17.625 17.65625-17.65625h8.828125c9.738281.03125 17.625 7.917969 17.652343 17.65625zm0 0"/><path d="m97.101562 220.722656v44.136719h-44.136718v-44.136719c.03125-9.738281 7.917968-17.625 17.65625-17.65625h8.828125c9.738281.03125 17.625 7.917969 17.652343 17.65625zm0 0"/><path d="m459.035156 353.136719v44.136719h-44.136718v-44.136719c.027343-9.738281 7.914062-17.625 17.652343-17.65625h8.828125c9.738282.03125 17.625 7.917969 17.65625 17.65625zm0 0"/><path d="m459.035156 220.722656v44.136719h-44.136718v-44.136719c.027343-9.738281 7.914062-17.625 17.652343-17.65625h8.828125c9.738282.03125 17.625 7.917969 17.65625 17.65625zm0 0"/><path d="m344.277344 225.136719v30.898437h-61.792969v-30.898437c0-17.0625 13.832031-30.894531 30.894531-30.894531 17.03125.082031 30.816406 13.863281 30.898438 30.894531zm0 0"/></g></svg>