<svg id="Capa_1" enable-background="new 0 0 504.5 504.5" height="512" viewBox="0 0 504.5 504.5" width="512" xmlns="http://www.w3.org/2000/svg"><g><path d="m497 372.146h-34.612c-4.142 0-7.5-3.358-7.5-7.5s3.358-7.5 7.5-7.5h34.612c4.142 0 7.5 3.358 7.5 7.5s-3.358 7.5-7.5 7.5z" fill="#9e5e2f"/><g><path d="m15.392 181.896v211.803c0 3.301 2.676 5.978 5.978 5.978h442.995c3.301 0 5.978-2.676 5.978-5.978v-211.803z" fill="#d88a55"/><path d="m440.342 181.896v211.803c0 3.301-2.676 5.978-5.978 5.978h30c3.301 0 5.978-2.676 5.978-5.978v-211.803z" fill="#c27842"/></g><path d="m110.282 323.465h-37.388c-3.335 0-6.039-2.704-6.039-6.039v-66.161c0-3.335 2.704-6.039 6.039-6.039h37.388c3.335 0 6.039 2.704 6.039 6.039v66.161c0 3.335-2.704 6.039-6.039 6.039z" fill="#f7f0eb"/><path d="m416.922 323.465h-37.388c-3.335 0-6.039-2.704-6.039-6.039v-66.161c0-3.335 2.704-6.039 6.039-6.039h37.388c3.335 0 6.039 2.704 6.039 6.039v66.161c.001 3.335-2.703 6.039-6.039 6.039z" fill="#f7f0eb"/><path d="m472.161 189.146h-462.425c-6.353 0-11.002-5.988-9.428-12.142l25.72-100.576c1.101-4.307 4.982-7.321 9.428-7.321h410.986c4.446 0 8.327 3.013 9.428 7.321l25.719 100.576c1.574 6.154-3.075 12.142-9.428 12.142z" fill="#5d656e"/><g fill="#495057"><path d="m481.589 177.004-25.719-100.576c-1.102-4.308-4.982-7.321-9.428-7.321h-17.33l22.477 87.897c1.574 6.155-3.076 12.143-9.428 12.143h-439.843l-2.009 7.857c-1.574 6.155 3.075 12.143 9.428 12.143h462.425c6.352-.001 11.001-5.989 9.427-12.143z"/><g><path d="m52.28 152.879c-.581 0-1.17-.068-1.759-.209-4.027-.968-6.508-5.017-5.54-9.045l15.476-57.727c.968-4.028 5.019-6.507 9.045-5.54 4.027.968 6.508 5.017 5.54 9.045l-15.476 57.727c-.826 3.438-3.899 5.749-7.286 5.749z"/><path d="m95.349 152.879c-.581 0-1.17-.068-1.759-.209-4.027-.968-6.508-5.017-5.54-9.045l15.476-57.727c.968-4.028 5.019-6.507 9.045-5.54 4.027.968 6.508 5.017 5.54 9.045l-15.477 57.727c-.825 3.438-3.898 5.749-7.285 5.749z"/></g><g><path d="m426.618 152.879c.581 0 1.17-.068 1.759-.209 4.027-.968 6.508-5.017 5.54-9.045l-15.477-57.727c-.968-4.028-5.019-6.507-9.045-5.54-4.027.968-6.508 5.017-5.54 9.045l15.477 57.727c.826 3.438 3.899 5.749 7.286 5.749z"/><path d="m383.549 152.879c.581 0 1.17-.068 1.759-.209 4.027-.968 6.508-5.017 5.54-9.045l-15.476-57.727c-.968-4.028-5.019-6.507-9.045-5.54-4.027.968-6.508 5.017-5.54 9.045l15.476 57.727c.826 3.438 3.898 5.749 7.286 5.749z"/></g></g><g><path d="m322.022 399.677h-37.898l-41.257-20-41.257 20h-37.898v-236.977l82.846-20 75.464 20z" fill="#b5703e"/><path d="m292.022 162.699v236.977h30v-236.977l-15-10z" fill="#ae6834"/><path d="m313.3 110.739h-140.867c-2.672 0-5.073 1.634-6.052 4.121l-15.341 38.952c-1.681 4.268 1.465 8.888 6.052 8.888h171.549c4.587 0 7.732-4.62 6.052-8.888l-15.341-38.952c-.979-2.487-3.38-4.121-6.052-4.121z" fill="#a1a1a1"/><path d="m334.693 153.812-15.341-38.953c-.979-2.486-3.38-4.121-6.052-4.121h-30c2.672 0 5.073 1.634 6.052 4.121l15.341 38.953c1.681 4.268-1.465 8.887-6.052 8.887h30c4.587 0 7.733-4.619 6.052-8.887z" fill="#8f8f8f"/><path d="m284.124 399.677h-82.514v-150.745c0-4.178 3.387-7.566 7.566-7.566h67.382c4.178 0 7.566 3.387 7.566 7.566z" fill="#ffcd75"/><path d="m276.558 241.366h-30c4.178 0 7.566 3.387 7.566 7.565v150.745h30v-150.744c0-4.178-3.388-7.566-7.566-7.566z" fill="#ffc069"/><ellipse cx="242.867" cy="320.521" fill="#e6a85e" rx="7.674" ry="7.674" transform="matrix(.231 -.973 .973 .231 -125.006 482.964)"/><path d="m264.124 207.915h-42.514c-4.142 0-7.5-3.358-7.5-7.5s3.358-7.5 7.5-7.5h42.514c4.142 0 7.5 3.358 7.5 7.5s-3.358 7.5-7.5 7.5z" fill="#9e5e2f"/></g><g><ellipse cx="398.228" cy="399.677" fill="#c9c9c9" rx="35.716" ry="35.716" transform="matrix(.172 -.985 .985 .172 -63.887 723.369)"/><circle cx="397.384" cy="399.677" fill="#a1a1a1" r="7.5"/><ellipse cx="91.588" cy="399.677" fill="#c9c9c9" rx="35.716" ry="35.716" transform="matrix(.158 -.987 .987 .158 -317.551 426.791)"/><circle cx="91.588" cy="399.677" fill="#a1a1a1" r="7.5"/></g></g></svg>