<?xml version="1.0" encoding="UTF-8"?>
<svg width="93px" height="93px" viewBox="0 0 93 93" version="1.1" xmlns="http://www.w3.org/2000/svg" xmlns:xlink="http://www.w3.org/1999/xlink">
    <!-- Generator: Sketch 47.1 (45422) - http://www.bohemiancoding.com/sketch -->
    <title>Group 2</title>
    <desc>Created with Sketch.</desc>
    <defs></defs>
    <g id="Page-1" stroke="none" stroke-width="1" fill="none" fill-rule="evenodd">
        <g id="Artboard" transform="translate(-427.000000, -107.000000)" fill="#FFFFFF">
            <g id="Group-2" transform="translate(427.000000, 107.000000)">
                <path d="M46.5,93 C20.8187591,93 0,72.1812409 0,46.5 C0,20.8187591 20.8187591,0 46.5,0 C72.1812409,0 93,20.8187591 93,46.5 C93,72.1812409 72.1812409,93 46.5,93 Z M34.875,25.9852941 L34.875,30.0882353 L32.8235294,30.0882353 C30.5637074,30.0882353 28.7205882,31.9313544 28.7205882,34.1911765 L28.7205882,62.9117647 C28.7205882,65.1715888 30.5637074,67.0147059 32.8235294,67.0147059 L61.5441176,67.0147059 C63.8039417,67.0147059 65.6470588,65.1715888 65.6470588,62.9117647 L65.6470588,34.1911765 C65.6470588,31.9313544 63.8039417,30.0882353 61.5441176,30.0882353 L59.4926471,30.0882353 L59.4926471,25.9852941 L55.3897059,25.9852941 L55.3897059,30.0882353 L38.9779412,30.0882353 L38.9779412,25.9852941 L34.875,25.9852941 Z" id="Combined-Shape"></path>
                <path d="M33,40 L62,40 L62,63 L33,63 L33,40 Z M48.1904762,49.4705882 L48.1904762,58.9411765 L59.2380952,58.9411765 L59.2380952,49.4705882 L48.1904762,49.4705882 Z" id="Combined-Shape"></path>
            </g>
        </g>
    </g>
</svg>