<?xml version="1.0" encoding="UTF-8"?>
<svg width="238px" height="242px" viewBox="0 0 238 242" version="1.1" xmlns="http://www.w3.org/2000/svg" xmlns:xlink="http://www.w3.org/1999/xlink">
    <!-- Generator: Sketch 47.1 (45422) - http://www.bohemiancoding.com/sketch -->
    <title>Group</title>
    <desc>Created with Sketch.</desc>
    <defs></defs>
    <g id="Page-1" stroke="none" stroke-width="1" fill="none" fill-rule="evenodd">
        <g id="-" transform="translate(-62.000000, -59.000000)" fill="#000000">
            <g id="Group" transform="translate(62.000000, 59.000000)">
                <path d="M215.885761,48.9285549 C196.779189,35.5528387 177.863475,21.0213081 136.024444,20.1198938 C94.1854121,19.2184794 67.4710899,29.6067945 46.1617258,60.5230128 C31.955483,81.1338249 29.59934,106.209372 39.0932968,135.749655 C50.8581356,160.923399 62.6247384,177.35466 74.3931053,185.043436 C92.0456555,196.5766 112.120206,209.221097 147.829267,210.217768 C183.538328,211.21444 177.386416,209.483888 183.728388,210.217768 C190.07036,210.951649 192.563731,211.948235 202.9733,223.34106 C209.913012,230.936277 217.328378,233.539674 225.219397,231.151252 C226.839326,229.766187 226.839326,228.511038 225.219397,227.385805 C222.789503,225.697956 217.306373,215.223464 215.885761,210.217768 C214.465149,205.212072 213.601864,202.772022 216.565598,198.271513 C218.541421,195.271174 223.376453,191.40628 231.070693,186.676831 C232.290718,186.474552 233.051806,187.127517 233.353956,188.635727 C233.80718,190.898042 230.076592,198.130594 227.300141,199.900329 C224.523691,201.670064 225.468253,206.093765 226.384197,208.647439 C227.300141,211.201113 228.787431,218.181662 231.070693,220.761361 C233.353956,223.34106 236.056165,225.169194 236.748063,228.160223 C237.43996,231.151252 238.291185,233.751899 234.20518,236.350006 C230.119175,238.948114 223.667388,243.873917 212.661772,241.196464 C201.656155,238.51901 196.334891,234.565037 192.450742,229.872828 C188.566594,225.18062 175.884071,223.391175 164.148954,223.99995 C152.413836,224.608725 114.068125,223.99995 89.291038,216.319193 C64.5139509,208.638435 38.1928846,193.160675 18.7007844,159.987907 C-0.791315738,126.815139 -7.54746359,85.0039859 13.2624835,52.5619399 C34.0724307,20.1198938 72.4466185,1.23216423 109.614746,0.982996575 C146.782874,0.733828924 171.850031,8.87883778 189.59176,20.1198938 C207.333488,31.3609498 216.565598,39.438005 222.439346,45.9744926 C228.313094,52.5109802 234.992333,62.304271 215.885761,48.9285549 Z" id="Path-4"></path>
                <text id="IL" font-family="ArialRoundedMTBold, Arial Rounded MT Bold" font-size="152" font-weight="normal">
                    <tspan x="76" y="168">IL</tspan>
                </text>
            </g>
        </g>
    </g>
</svg>