<?xml version="1.0" encoding="UTF-8"?>
<svg width="272px" height="272px" viewBox="0 0 272 272" version="1.1" xmlns="http://www.w3.org/2000/svg" xmlns:xlink="http://www.w3.org/1999/xlink">
    <!-- Generator: Sketch 47.1 (45422) - http://www.bohemiancoding.com/sketch -->
    <title>Artboard 2</title>
    <desc>Created with Sketch.</desc>
    <defs></defs>
    <g id="Page-1" stroke="none" stroke-width="1" fill="none" fill-rule="evenodd">
        <g id="Artboard-2">
            <rect id="Rectangle-5" fill="#D8D8D8" x="0" y="0" width="272" height="272"></rect>
            <path d="M140.763672,156.371094 L127.322266,156.371094 C127.41862,150.49346 128.129225,145.844418 129.454102,142.423828 C130.778978,139.003238 133.826148,134.787785 138.595703,129.777344 C143.365258,124.766902 146.689444,121.10548 148.568359,118.792969 C150.977226,115.854152 152.181641,111.975936 152.181641,107.158203 C152.181641,102.147761 150.856784,98.2093242 148.207031,95.3427734 C145.557278,92.4762226 141.727239,91.0429688 136.716797,91.0429688 C132.477192,91.0429688 128.695329,92.187163 125.371094,94.4755859 C122.046858,96.7640088 120.360677,100.413386 120.3125,105.423828 L106.943359,105.423828 C107.039714,97.233683 109.942354,90.8382392 115.651367,86.2373047 C121.36038,81.6363702 128.38212,79.3359375 136.716797,79.3359375 C145.918666,79.3359375 153.036759,81.7929442 158.071289,86.7070312 C163.105819,91.6211183 165.623047,98.3176659 165.623047,106.796875 C165.623047,113.252636 163.720071,119.045873 159.914062,124.176758 C156.108054,129.307643 151.964866,133.944641 147.484375,138.087891 C143.003884,142.231141 140.763672,148.325481 140.763672,156.371094 Z M126.744141,179.279297 C126.744141,177.111317 127.418613,175.280606 128.767578,173.787109 C130.116543,172.293612 132.067696,171.546875 134.621094,171.546875 C137.222669,171.546875 139.19791,172.293612 140.546875,173.787109 C141.89584,175.280606 142.570312,177.111317 142.570312,179.279297 C142.570312,181.350922 141.89584,183.133456 140.546875,184.626953 C139.19791,186.12045 137.222669,186.867188 134.621094,186.867188 C132.067696,186.867188 130.116543,186.12045 128.767578,184.626953 C127.418613,183.133456 126.744141,181.350922 126.744141,179.279297 Z" id="?" fill="#979797"></path>
        </g>
    </g>
</svg>