<svg width="1024" height="1024" viewBox="0 0 1024 1024" fill="none" xmlns="http://www.w3.org/2000/svg">
    <g clip-path="url(#clip0_18_2)">
        <rect width="1024" height="1024" fill="#848CF1" />
        <path d="M881.778 0H142.222C63.6751 0 0 63.6751 0 142.222V881.778C0 960.325 63.6751 1024 142.222 1024H881.778C960.325 1024 1024 960.325 1024 881.778V142.222C1024 63.6751 960.325 0 881.778 0Z" fill="#848CF1" />
        <g filter="url(#filter0_d_18_2)">
            <path d="M788.115 403.238C790.811 407.728 791.96 412.979 791.389 418.188C785.94 467.571 749.697 510.197 698.48 521.402C644.525 533.21 591.107 506.385 567.078 459.434C569.31 406.728 606.645 360.058 660.599 348.25C711.817 337.045 762.556 360.645 788.123 403.238H788.115Z" fill="#EA9C00" />
            <path d="M787.23 401.783C794.168 412.971 799.352 425.507 802.329 439.101C816.378 503.326 775.703 566.79 711.478 580.839C647.253 594.888 583.789 554.213 569.74 489.988C566.763 476.394 566.243 462.841 567.88 449.776C593.728 491.451 643.888 514.39 694.519 503.309C745.158 492.229 781.152 450.446 787.23 401.783Z" fill="#D18B00" />
            <path d="M432.368 728.564C410.96 733.252 389.808 719.691 385.119 698.283L373.808 646.594C369.119 625.185 382.68 604.033 404.088 599.345C425.497 594.656 446.649 608.217 451.337 629.626L462.649 681.315C467.338 702.723 453.777 723.875 432.368 728.564ZM299.594 616.792L271.322 487.573C269.759 480.437 262.706 475.914 255.57 477.477L216.805 485.961C209.669 487.524 205.146 494.577 206.709 501.713L234.98 630.932C236.543 638.068 243.596 642.591 250.733 641.029L289.497 632.545C296.633 630.982 301.157 623.928 299.594 616.792V616.792Z" fill="#D18B00" />
            <path d="M692.666 185.434L799.981 675.932L509.013 583.799L399.359 506.6L466.751 390.661L692.658 185.434H692.666Z" fill="#FFF5F5" />
            <path d="M794.771 652.109L808.614 715.383L517.646 623.25L385.599 530.282L401.476 502.97L464.998 547.689L794.771 652.109V652.109Z" fill="#D6D7E1" />
            <path d="M801.486 747.309C790.778 749.649 780.202 742.869 777.861 732.169L657.714 183.02C655.374 172.311 662.154 161.735 672.854 159.395C683.562 157.055 694.138 163.836 696.478 174.536L816.626 723.685C818.966 734.393 812.186 744.969 801.486 747.309V747.309Z" fill="#FEB300" />
            <path d="M446.98 516.845C448.542 523.982 444.019 531.035 436.883 532.598L320.589 558.041C313.453 559.604 306.399 555.081 304.836 547.945C303.274 540.809 307.797 533.755 314.933 532.193L431.227 506.749C438.363 505.186 445.417 509.709 446.98 516.845ZM326.964 494.362L423.876 473.161C431.012 471.598 435.535 464.544 433.973 457.408C432.41 450.272 425.356 445.749 418.22 447.312L321.308 468.513C314.172 470.076 309.649 477.13 311.212 484.266C312.775 491.402 319.828 495.925 326.964 494.362ZM443.664 563.606L346.752 584.808C339.616 586.371 335.092 593.424 336.655 600.56C338.218 607.696 345.272 612.219 352.408 610.657L449.32 589.455C456.456 587.892 460.979 580.839 459.416 573.703C457.853 566.567 450.8 562.043 443.664 563.606Z" fill="#D18B00" />
            <path d="M298.784 427.408L466.767 390.653L517.654 623.242L440.125 640.202C425.852 643.327 416.814 657.426 419.932 671.698L442.423 774.481C452.462 781.832 459.954 792.731 462.823 805.845C468.024 829.627 456.34 853.177 435.792 863.984C424.033 865.605 414.284 865.018 407.553 864.149C400.169 863.199 391.776 862.049 382.242 857.096C378.083 854.938 373.187 852.341 368.549 847.14C361.462 839.186 359.519 830.247 358.89 825.881C347.909 775.68 336.92 725.471 325.939 675.27C324.095 666.828 318.24 659.824 310.253 656.508C290.945 648.504 275.738 631.494 270.934 609.524L248.318 506.154C247.375 501.854 242.794 478.866 257.249 456.325C271.694 433.784 294.492 428.351 298.792 427.408H298.784Z" fill="#FEB300" />
            <path d="M407.553 864.158C400.574 863.786 389.552 862.124 378.703 855.343C375.428 853.301 370.277 850.01 365.927 843.874C361.239 837.259 359.932 830.784 359.444 828.469C356.699 815.297 343.097 756.488 324.632 675.551C322.788 667.109 316.934 660.105 308.946 656.789C289.638 648.785 274.431 631.776 269.627 609.805L247.012 506.435C241.562 481.529 252.213 456.557 270.495 441.251C270.661 445.782 271.223 450.355 272.232 454.936L298.378 574.447C303.935 599.841 321.515 619.504 343.841 628.766C343.841 628.766 350.646 635.273 361.975 650.455C379.141 673.459 401.996 753.701 407.545 864.141L407.553 864.158Z" fill="#EA9C00" />
            <path d="M324.64 675.551C322.797 667.109 316.942 660.105 308.954 656.789C289.646 648.785 274.44 631.776 269.635 609.805L247.02 506.435C241.571 481.529 252.221 456.557 270.504 441.251C270.669 445.782 271.231 450.355 272.24 454.936L298.387 574.447" fill="#EA9C00" />
        </g>
    </g>
    <defs>
        <filter id="filter0_d_18_2" x="202.4" y="158.933" width="618.688" height="714.073" filterUnits="userSpaceOnUse" color-interpolation-filters="sRGB">
            <feFlood flood-opacity="0" result="BackgroundImageFix" />
            <feColorMatrix in="SourceAlpha" type="matrix" values="0 0 0 0 0 0 0 0 0 0 0 0 0 0 0 0 0 0 127 0" result="hardAlpha" />
            <feOffset dy="4" />
            <feGaussianBlur stdDeviation="2" />
            <feComposite in2="hardAlpha" operator="out" />
            <feColorMatrix type="matrix" values="0 0 0 0 0 0 0 0 0 0 0 0 0 0 0 0 0 0 0.25 0" />
            <feBlend mode="normal" in2="BackgroundImageFix" result="effect1_dropShadow_18_2" />
            <feBlend mode="normal" in="SourceGraphic" in2="effect1_dropShadow_18_2" result="shape" />
        </filter>
        <clipPath id="clip0_18_2">
            <rect width="1024" height="1024" fill="white" />
        </clipPath>
    </defs>
</svg>