<svg width="66" height="66" viewBox="0 0 66 66" fill="none" xmlns="http://www.w3.org/2000/svg">
    <path d="M62.2989 20.9512C61.5341 19.0096 60.0519 17.4368 58.0221 16.5542L50.9958 13.4991L49.7738 16.3096L56.748 19.3421C57.9972 19.8852 58.9159 20.9035 59.3865 22.0984C59.8572 23.2932 59.8798 24.6645 59.3367 25.9137L56.1005 33.3563L58.911 34.5784L62.1698 27.0837C63.0524 25.0538 63.0117 22.8701 62.2989 20.9512Z" fill="#4A484F" fill-opacity="0.3" />
    <path d="M6.45189 43.64C5.98123 42.4452 5.95864 41.0739 6.50177 39.8248L9.7153 32.4341L6.90479 31.2121L3.66863 38.6548C2.78604 40.6846 2.82671 42.8683 3.53949 44.7873C4.37898 46.6994 5.83852 48.3243 7.86834 49.2068L14.8426 52.2393L16.0646 49.4288L9.09038 46.3963C7.84127 45.8532 6.92255 44.8349 6.45189 43.64Z" fill="#4A484F" fill-opacity="0.3" />
    <path d="M45.7742 56.9628C45.2311 58.2119 44.2127 59.1307 43.0179 59.6013C41.8231 60.072 40.4517 60.0946 39.2026 59.5514L32.2804 56.5416L31.0584 59.3521L38.0326 62.3846C40.0624 63.2672 42.2461 63.2265 44.1651 62.5137C46.1067 61.7489 47.6795 60.2667 48.5621 58.2369L51.8209 50.7422L49.0103 49.5202L45.7742 56.9628Z" fill="#4A484F" fill-opacity="0.3" />
    <path d="M21.6506 3.27675C19.709 4.04156 18.1363 5.52374 17.2537 7.55355L14.0175 14.9962L16.828 16.2183L20.0642 8.7756C20.6073 7.52648 21.6257 6.60776 22.8205 6.1371C24.0153 5.66645 25.3867 5.64385 26.6358 6.18698L33.61 9.21947L34.8094 6.461L27.7831 3.40589C25.7533 2.5233 23.5696 2.56398 21.6506 3.27675Z" fill="#4A484F" fill-opacity="0.3" />
</svg>
    