<svg width="58" height="58" viewBox="0 0 58 58" fill="none" xmlns="http://www.w3.org/2000/svg">
    <g clip-path="url(#clip0_68_20)">
        <path d="M43.6092 48.4571C43.0234 48.5502 42.4238 48.4985 41.8626 48.3066L31.4427 44.7744C31.3618 44.7463 31.2753 44.7386 31.1908 44.752C31.1063 44.7654 31.0263 44.7994 30.9581 44.8511L22.1412 51.4301C21.5949 51.8381 20.9453 52.0851 20.2659 52.1431C19.5865 52.2011 18.9044 52.0678 18.2969 51.7582C17.6893 51.4487 17.1805 50.9753 16.828 50.3915C16.4756 49.8078 16.2935 49.1371 16.3024 48.4553L16.4428 37.4557C16.4436 37.3696 16.4233 37.2846 16.3836 37.2081C16.3439 37.1317 16.2861 37.0661 16.2152 37.0172L7.23835 30.6604C6.68113 30.2666 6.24536 29.7245 5.98041 29.0957C5.71546 28.4669 5.63192 27.7764 5.73926 27.1026C5.84659 26.4287 6.14052 25.7984 6.58773 25.283C7.03494 24.7676 7.61756 24.3878 8.26957 24.1866L18.7682 20.9244C18.8499 20.899 18.9241 20.854 18.9846 20.7935C19.045 20.7329 19.0897 20.6585 19.115 20.5768L22.3756 10.0702C22.5774 9.4189 22.9576 8.83715 23.4731 8.39081C23.9886 7.94447 24.6187 7.65137 25.2922 7.5447C25.9656 7.43804 26.6555 7.52207 27.2837 7.78727C27.9119 8.05248 28.4532 8.48827 28.8465 9.0453L35.1968 18.0265C35.2463 18.0962 35.3119 18.1529 35.3881 18.1918C35.4642 18.2307 35.5485 18.2506 35.634 18.2499L46.6364 18.1083C47.3184 18.0988 47.9895 18.2804 48.5737 18.6324C49.158 18.9845 49.632 19.4931 49.9422 20.1006C50.2524 20.708 50.3864 21.3902 50.3291 22.0699C50.2717 22.7496 50.0253 23.3997 49.6177 23.9466L43.0361 32.7629C42.984 32.8314 42.9494 32.9116 42.9353 32.9965C42.9212 33.0815 42.928 33.1686 42.9551 33.2503L46.4877 43.6681C46.658 44.1715 46.7165 44.706 46.6593 45.2344C46.602 45.7628 46.4303 46.2723 46.1561 46.7275C45.8818 47.1828 45.5117 47.5728 45.0714 47.8705C44.6312 48.1681 44.1313 48.3663 43.6067 48.4511L43.6092 48.4571ZM30.7018 41.6645C31.287 41.5716 31.8861 41.6234 32.4468 41.8152L42.8649 45.3461C42.9578 45.3813 43.0589 45.3881 43.1557 45.3658C43.2524 45.3434 43.3403 45.2929 43.4082 45.2205C43.4803 45.1522 43.5308 45.0644 43.5534 44.9677C43.5761 44.871 43.5699 44.7699 43.5357 44.6767L40.0013 34.2576C39.8118 33.6967 39.7612 33.0983 39.8537 32.5135C39.9463 31.9288 40.1792 31.3752 40.5327 30.9003L47.114 22.0825C47.1727 22.0035 47.2081 21.9096 47.2163 21.8115C47.2245 21.7134 47.205 21.6149 47.1602 21.5272C47.1154 21.4396 47.047 21.3662 46.9627 21.3153C46.8783 21.2645 46.7815 21.2383 46.683 21.2395L35.682 21.3794C35.0898 21.3873 34.5045 21.2508 33.9768 20.9819C33.4491 20.7129 32.9948 20.3196 32.6532 19.8358L26.2965 10.854C26.2395 10.7736 26.1613 10.7107 26.0705 10.6725C25.9798 10.6343 25.8801 10.6222 25.7828 10.6376C25.6856 10.653 25.5945 10.6953 25.52 10.7597C25.4455 10.8241 25.3905 10.9081 25.3612 11.0021L22.0999 21.5041C21.9244 22.07 21.6137 22.5847 21.1946 23.0036C20.7756 23.4225 20.2608 23.733 19.6948 23.9084L9.19101 27.1777C9.09673 27.2066 9.01247 27.2614 8.94782 27.3359C8.88316 27.4103 8.84072 27.5015 8.82531 27.5989C8.80991 27.6963 8.82217 27.796 8.86069 27.8868C8.89922 27.9776 8.96246 28.0557 9.04321 28.1123L18.0257 34.4651C18.5086 34.8075 18.9012 35.262 19.1699 35.7895C19.4386 36.317 19.5754 36.9018 19.5685 37.4938L19.4268 48.4952C19.4254 48.594 19.4517 48.6913 19.5029 48.7759C19.554 48.8606 19.6279 48.9291 19.716 48.9739C19.8042 49.0186 19.9032 49.0376 20.0017 49.0289C20.1002 49.0201 20.1942 48.9839 20.2731 48.9243L29.0884 42.3455C29.5629 41.9909 30.1167 41.7571 30.7018 41.6645Z" fill="#4A484F" fill-opacity="0.3" />
    </g>
    <defs>
        <clipPath id="clip0_68_20">
            <rect width="50" height="50" fill="white" transform="translate(0.117554 8.37497) rotate(-9)" />
        </clipPath>
    </defs>
</svg>
    