<svg width="67" height="68" viewBox="0 0 67 68" fill="none" xmlns="http://www.w3.org/2000/svg">
    <g clip-path="url(#clip0_68_4)">
        <path d="M61.6208 37.2155L28.372 14.9038C25.6719 13.08 22.0137 14.7983 21.6767 18.0229L17.4351 57.8209C17.4351 57.8219 17.4349 57.823 17.4348 57.824C17.0868 61.1551 20.5023 63.592 23.5398 62.1757L61.0339 44.6918C64.0667 43.2775 64.4057 39.0966 61.6208 37.2155ZM59.7958 42.037L22.3018 59.5208C21.3312 59.9734 20.2388 59.1964 20.3479 58.1314L24.5899 18.3303C24.6976 17.2987 25.8655 16.7459 26.7359 17.3338L59.9846 39.6456C60.8727 40.2452 60.7682 41.5836 59.7958 42.037Z" fill="#4A484F" fill-opacity="0.3" />
    </g>
    <defs>
        <clipPath id="clip0_68_4">
            <rect width="50" height="50" fill="white" transform="translate(0 21.9047) rotate(-25)" />
        </clipPath>
    </defs>
</svg>
    