<svg width="42" height="42" viewBox="0 0 42 42" fill="none" xmlns="http://www.w3.org/2000/svg">
    <g clip-path="url(#clip0_68_62)">
        <path d="M6.34662 42H35.6533C38.7255 42 41.2222 39.5033 41.2222 36.4311V8.67995C41.2222 5.60774 38.7255 3.11105 35.6533 3.11105H33.4444V1.55553C33.4444 0.699961 32.7443 0 31.8888 0C31.0332 0 30.3332 0.699961 30.3332 1.55553V3.11105H11.6667V1.55553C11.6667 0.699961 10.9666 0 10.111 0C9.25543 0 8.55547 0.699961 8.55547 1.55553V3.11105H6.34662C3.2744 3.11105 0.77771 5.60774 0.77771 8.67995V36.4311C0.77771 39.5033 3.2744 42 6.34662 42ZM3.88889 8.67995C3.88889 7.32666 4.99332 6.22223 6.34662 6.22223H8.55547V7.77776C8.55547 8.63332 9.25543 9.33328 10.111 9.33328C10.9666 9.33328 11.6665 8.63332 11.6665 7.77776V6.22223H30.3332V7.77776C30.3332 8.63332 31.0332 9.33328 31.8888 9.33328C32.7443 9.33328 33.4443 8.63332 33.4443 7.77776V6.22223H35.6531C37.0064 6.22223 38.1109 7.32666 38.1109 8.67995V13.2222H3.88889V8.67995ZM3.88889 16.3333H38.1111V36.4311C38.1111 37.7844 37.0067 38.8888 35.6534 38.8888H6.34662C4.99332 38.8888 3.88889 37.7844 3.88889 36.4311V16.3333Z" fill="white" />
    </g>
    <defs>
        <clipPath id="clip0_68_62">
            <rect width="42" height="42" fill="white" />
        </clipPath>
    </defs>
</svg>