<svg width="43" height="42" viewBox="0 0 43 42" fill="none" xmlns="http://www.w3.org/2000/svg">
    <g clip-path="url(#clip0_68_71)">
        <path d="M33.0546 28.2511C31.0423 28.2511 29.2293 29.1201 27.9709 30.5024L16.6529 23.4926C16.9551 22.7191 17.1226 21.8789 17.1226 21C17.1226 20.1207 16.9551 19.2805 16.6529 18.5073L27.9709 11.4972C29.2293 12.8795 31.0423 13.7489 33.0546 13.7489C36.8453 13.7489 39.9292 10.665 39.9292 6.87427C39.9292 3.08354 36.8453 0 33.0546 0C29.2639 0 26.18 3.08386 26.18 6.87459C26.18 7.75354 26.3479 8.59372 26.6498 9.36724L15.3321 16.3771C14.0737 14.9947 12.2607 14.1254 10.2484 14.1254C6.45764 14.1254 3.37378 17.2095 3.37378 21C3.37378 24.7907 6.45764 27.8745 10.2484 27.8745C12.2607 27.8745 14.0737 27.0055 15.3321 25.6229L26.6498 32.6327C26.3479 33.4062 26.18 34.2464 26.18 35.1256C26.18 38.9161 29.2639 41.9999 33.0546 41.9999C36.8453 41.9999 39.9292 38.9161 39.9292 35.1256C39.9292 31.3349 36.8453 28.2511 33.0546 28.2511ZM28.6868 6.87459C28.6868 4.46621 30.6462 2.50675 33.0546 2.50675C35.463 2.50675 37.4225 4.46621 37.4225 6.87459C37.4225 9.28297 35.463 11.2424 33.0546 11.2424C30.6462 11.2424 28.6868 9.28297 28.6868 6.87459ZM10.2484 25.3678C7.83967 25.3678 5.88021 23.4083 5.88021 21C5.88021 18.5916 7.83967 16.6321 10.2484 16.6321C12.6568 16.6321 14.6159 18.5916 14.6159 21C14.6159 23.4083 12.6568 25.3678 10.2484 25.3678ZM28.6868 35.1253C28.6868 32.7169 30.6462 30.7575 33.0546 30.7575C35.463 30.7575 37.4225 32.7169 37.4225 35.1253C37.4225 37.5337 35.463 39.4932 33.0546 39.4932C30.6462 39.4932 28.6868 37.5337 28.6868 35.1253Z" fill="white" />
    </g>
    <defs>
        <clipPath id="clip0_68_71">
            <rect width="42" height="42" fill="white" transform="translate(0.666748)" />
        </clipPath>
    </defs>
</svg>
    