<svg width="47" height="46" viewBox="0 0 47 46" fill="none" xmlns="http://www.w3.org/2000/svg">
    <g clip-path="url(#clip0_68_78)">
        <path d="M40.1168 21.2479C41.4638 20.3014 42.3558 18.7268 42.3558 16.9519C42.3558 14.0485 40.0076 11.7002 37.1041 11.7002C34.2007 11.7002 31.8524 14.0485 31.8524 16.9519C31.8524 18.7268 32.7353 20.3014 34.0915 21.2479C32.9355 21.6484 31.8797 22.2673 30.9878 23.0683C29.7591 22.0216 28.3119 21.2206 26.7282 20.7473C28.6486 19.5823 29.9411 17.4616 29.9411 15.0497C29.9411 11.3726 26.9648 8.39633 23.2877 8.39633C19.6107 8.39633 16.6344 11.3817 16.6344 15.0497C16.6344 17.4616 17.9177 19.5823 19.8473 20.7473C18.2818 21.2206 16.8528 22.0125 15.6332 23.041C14.7412 22.2582 13.7037 21.6484 12.5659 21.257C13.913 20.3105 14.805 18.7359 14.805 16.961C14.805 14.0576 12.4567 11.7094 9.55328 11.7094C6.64983 11.7094 4.30159 14.0576 4.30159 16.961C4.30159 18.7359 5.18446 20.3105 6.54061 21.257C2.92724 22.504 0.333252 25.9353 0.333252 29.9674V30.5681C0.333252 30.5863 0.351455 30.6045 0.369659 30.6045H11.501C11.4373 31.1051 11.4009 31.6239 11.4009 32.1427V32.7616C11.4009 35.4375 13.5671 37.6037 16.243 37.6037H30.3507C33.0266 37.6037 35.1928 35.4375 35.1928 32.7616V32.1427C35.1928 31.6239 35.1564 31.1051 35.0927 30.6045H46.2968C46.315 30.6045 46.3333 30.5863 46.3333 30.5681V29.9674C46.315 25.9262 43.7302 22.4949 40.1168 21.2479ZM33.3087 16.9428C33.3087 14.8494 35.0107 13.1474 37.1041 13.1474C39.1975 13.1474 40.8995 14.8494 40.8995 16.9428C40.8995 19.0089 39.2339 20.6927 37.1769 20.7382C37.1496 20.7382 37.1314 20.7382 37.1041 20.7382C37.0768 20.7382 37.0586 20.7382 37.0313 20.7382C34.9652 20.7018 33.3087 19.018 33.3087 16.9428ZM18.0725 15.0497C18.0725 12.1826 20.4025 9.8526 23.2695 9.8526C26.1366 9.8526 28.4666 12.1826 28.4666 15.0497C28.4666 17.8166 26.2913 20.0829 23.5699 20.2376C23.4698 20.2376 23.3697 20.2376 23.2695 20.2376C23.1694 20.2376 23.0693 20.2376 22.9692 20.2376C20.2478 20.0829 18.0725 17.8166 18.0725 15.0497ZM5.73056 16.9428C5.73056 14.8494 7.43258 13.1474 9.52597 13.1474C11.6194 13.1474 13.3214 14.8494 13.3214 16.9428C13.3214 19.0089 11.6558 20.6927 9.59878 20.7382C9.57148 20.7382 9.55328 20.7382 9.52597 20.7382C9.49867 20.7382 9.48046 20.7382 9.45316 20.7382C7.39617 20.7018 5.73056 19.018 5.73056 16.9428ZM11.7559 29.1391H1.80773C2.2173 25.2618 5.49392 22.2218 9.47136 22.1945C9.48956 22.1945 9.50777 22.1945 9.52597 22.1945C9.54417 22.1945 9.56238 22.1945 9.58058 22.1945C11.4737 22.2036 13.2031 22.9044 14.541 24.0422C13.2304 25.462 12.2565 27.2095 11.7559 29.1391ZM33.7183 32.7616C33.7183 34.6274 32.1983 36.1474 30.3325 36.1474H16.2248C14.359 36.1474 12.839 34.6274 12.839 32.7616V32.1427C12.839 26.4905 17.3534 21.8668 22.9692 21.703C23.0693 21.7121 23.1785 21.7121 23.2786 21.7121C23.3788 21.7121 23.488 21.7121 23.5881 21.703C29.2038 21.8668 33.7183 26.4905 33.7183 32.1427V32.7616ZM34.8014 29.1391C34.3008 27.2187 33.3451 25.4984 32.0436 24.0786C33.3906 22.9135 35.1382 22.2127 37.0495 22.1945C37.0677 22.1945 37.0859 22.1945 37.1041 22.1945C37.1223 22.1945 37.1405 22.1945 37.1587 22.1945C41.1362 22.2218 44.4128 25.2618 44.8224 29.1391H34.8014Z" fill="white" />
    </g>
    <defs>
        <clipPath id="clip0_68_78">
            <rect width="46" height="46" fill="white" transform="translate(0.333252)" />
        </clipPath>
    </defs>
</svg>
    