<?xml version="1.0"?>
<svg xmlns="http://www.w3.org/2000/svg" xmlns:xlink="http://www.w3.org/1999/xlink" xmlns:svgjs="http://svgjs.com/svgjs" version="1.1" width="512" height="512" x="0" y="0" viewBox="0 0 477.862 477.862" style="enable-background:new 0 0 512 512" xml:space="preserve" class="">
	<g transform="matrix(-1,-1.2246467991473532e-16,1.2246467991473532e-16,-1,477.8628702163696,477.86214447021496)">
		<path d="M187.722,102.856V17.062C187.719,7.636,180.076-0.003,170.65,0c-4.834,0.001-9.44,2.053-12.676,5.644L4.375,176.311    c-5.617,6.256-5.842,15.67-0.529,22.187l153.6,187.733c5.968,7.295,16.72,8.371,24.016,2.403c3.952-3.233,6.249-8.066,6.26-13.172    v-85.043c134.827,4.386,218.965,62.02,256.888,175.787c2.326,6.96,8.841,11.653,16.179,11.656c0.92,0.003,1.84-0.072,2.748-0.222    c8.256-1.347,14.319-8.479,14.319-16.845C477.855,259.818,356.87,112.174,187.722,102.856z" fill="#6b7280" data-original="#000000" style="" class="" />
	</g>
</svg>