<svg width="50" height="50" viewBox="0 0 50 50" fill="none" xmlns="http://www.w3.org/2000/svg">
    <path d="M6.75141 12.7042C8.05697 11.7917 10.025 11.9667 11.1972 12.9347L9.8528 10.9806C8.77086 9.4375 9.15836 7.76806 10.7028 6.68473C12.2472 5.60556 16.6236 8.50695 16.6236 8.50695C15.532 6.94862 15.7361 4.97362 17.2945 3.88056C18.8528 2.79167 21.0028 3.16806 22.0945 4.72917L36.5667 25.1736L34.7222 43.0556L19.3292 37.4417L5.9028 17.5347C4.80141 15.9667 5.18197 13.8042 6.75141 12.7042Z" fill="#EF9645" />
    <path d="M3.74306 24.0778C3.74306 24.0778 2.17084 21.7861 4.4639 20.2153C6.75417 18.6444 8.32501 20.9347 8.32501 20.9347L15.6181 31.5708C15.8695 31.1514 16.1445 30.7375 16.4514 30.3292L6.32917 15.5694C6.32917 15.5694 4.75834 13.2792 7.05001 11.7083C9.34029 10.1375 10.9111 12.4278 10.9111 12.4278L20.432 26.3125C20.7861 26.0236 21.1486 25.7333 21.5222 25.4486L10.4847 9.35C10.4847 9.35 8.9139 7.05972 11.2056 5.48889C13.4958 3.91806 15.0667 6.20833 15.0667 6.20833L26.1042 22.3042C26.5097 22.0556 26.9111 21.8403 27.3139 21.6125L16.9972 6.56806C16.9972 6.56806 15.4264 4.27778 17.7167 2.70694C20.007 1.13611 21.5778 3.42639 21.5778 3.42639L32.4861 19.3347L34.1444 21.7542C27.2722 26.4681 26.6181 35.3361 30.5444 41.0625C31.3292 42.2083 32.475 41.4236 32.475 41.4236C27.7625 34.55 29.2014 26.8264 36.075 22.1139L34.0486 11.9722C34.0486 11.9722 33.2917 9.3 35.9625 8.54167C38.6347 7.78472 39.3931 10.4569 39.3931 10.4569L41.7333 17.4069C42.6611 20.1625 43.6486 22.9083 44.9556 25.5056C48.6458 32.8389 46.4417 41.9528 39.4833 46.7264C31.8931 51.9306 21.5167 49.9958 16.3111 42.407L3.74306 24.0778Z" fill="#FFDC5D" />
    <path d="M16.6667 44.5028C11.1111 44.5028 5.49726 38.8889 5.49726 33.3333C5.49726 32.5653 4.93476 31.9445 4.1667 31.9445C3.39865 31.9445 2.71948 32.5653 2.71948 33.3333C2.71948 41.6667 8.33337 47.2806 16.6667 47.2806C17.4348 47.2806 18.0556 46.6014 18.0556 45.8333C18.0556 45.0653 17.4348 44.5028 16.6667 44.5028Z" fill="#5DADEC" />
    <path d="M9.72222 47.2222C5.55556 47.2222 2.77778 44.4444 2.77778 40.2778C2.77778 39.5097 2.15694 38.8889 1.38889 38.8889C0.620833 38.8889 0 39.5097 0 40.2778C0 45.8333 4.16667 50 9.72222 50C10.4903 50 11.1111 49.3792 11.1111 48.6111C11.1111 47.843 10.4903 47.2222 9.72222 47.2222ZM33.3333 2.77777C32.5667 2.77777 31.9444 3.39999 31.9444 4.16666C31.9444 4.93333 32.5667 5.55555 33.3333 5.55555C38.8889 5.55555 44.4444 10.5403 44.4444 16.6667C44.4444 17.4333 45.0667 18.0555 45.8333 18.0555C46.6 18.0555 47.2222 17.4333 47.2222 16.6667C47.2222 9.00833 41.6667 2.77777 33.3333 2.77777Z" fill="#5DADEC" />
    <path d="M40.2778 0.0583344C39.5111 0.0583344 38.8889 0.622223 38.8889 1.38889C38.8889 2.15556 39.5111 2.83611 40.2778 2.83611C44.4445 2.83611 47.1639 5.92639 47.1639 9.72222C47.1639 10.4889 47.8431 11.1111 48.6111 11.1111C49.3792 11.1111 49.9417 10.4889 49.9417 9.72222C49.9417 4.39306 45.8334 0.0583344 40.2778 0.0583344Z" fill="#5DADEC" />
</svg>