<svg width="600" height="600" viewBox="0 0 600 600" fill="none" xmlns="http://www.w3.org/2000/svg">
    <path d="M300.415 553C440.237 553 553.584 439.653 553.584 299.832C553.584 160.01 440.237 46.6629 300.415 46.6629C160.594 46.6629 47.2467 160.01 47.2467 299.832C47.2467 439.653 160.594 553 300.415 553Z" fill="#838BF1" />
    <path d="M462.934 188.964C465.021 192.434 465.908 196.503 465.461 200.524C461.248 238.722 433.211 271.691 393.591 280.357C351.859 289.487 310.544 268.741 291.949 232.422C293.676 191.658 322.552 155.555 364.283 146.426C403.903 137.76 443.14 156.011 462.918 188.956L462.934 188.964Z" fill="#EA9C00" />
    <path d="M462.255 187.837C467.619 196.487 471.633 206.184 473.935 216.705C484.808 266.383 453.341 315.469 403.664 326.341C353.986 337.214 304.9 305.747 294.028 256.07C291.725 245.557 291.326 235.068 292.589 224.963C312.583 257.197 351.38 274.937 390.545 266.367C429.71 257.797 457.554 225.475 462.255 187.837Z" fill="#D18B00" />
    <path d="M187.781 440.598C171.225 444.22 154.86 433.731 151.239 417.174L142.493 377.194C138.871 360.637 149.36 344.273 165.916 340.651C182.473 337.03 198.838 347.519 202.459 364.075L211.205 404.055C214.826 420.612 204.338 436.977 187.781 440.598ZM85.0844 354.146L63.2195 254.199C62.0123 248.683 56.5601 245.181 51.0359 246.389L21.0487 252.952C15.5325 254.159 12.031 259.611 13.2381 265.136L35.103 365.082C36.3101 370.598 41.7624 374.1 47.2865 372.893L77.2738 366.329C82.7899 365.122 86.2915 359.67 85.0844 354.146Z" fill="#D18B00" />
    <path d="M389.114 20.497L472.12 399.89L247.068 328.628L162.255 268.917L214.387 179.243L389.122 20.505L389.114 20.497Z" fill="#FFF5F5" />
    <path d="M468.083 381.463L478.788 430.405L253.736 359.142L151.598 287.232L163.878 266.103L213.012 300.695L468.083 381.463Z" fill="#D6D7E1" />
    <path d="M473.279 455.1C464.997 456.915 456.819 451.67 455.004 443.388L362.068 18.6343C360.254 10.352 365.498 2.17369 373.78 0.358945C382.063 -1.4558 390.241 3.78856 392.056 12.0708L484.991 436.825C486.806 445.107 481.562 453.285 473.279 455.1Z" fill="#FEB300" />
    <path d="M199.077 276.839C200.285 282.356 196.791 287.816 191.267 289.023L101.313 308.705C95.7969 309.913 90.3367 306.419 89.1295 300.895C87.9224 295.379 91.4159 289.918 96.9401 288.711L186.894 269.029C192.41 267.822 197.87 271.315 199.077 276.839ZM106.254 259.443L181.218 243.039C186.734 241.832 190.235 236.379 189.028 230.855C187.821 225.339 182.369 221.838 176.845 223.045L101.881 239.449C96.3645 240.657 92.8629 246.109 94.0701 251.633C95.2773 257.149 100.729 260.651 106.254 259.443ZM196.519 313.006L121.555 329.411C116.039 330.618 112.537 336.07 113.744 341.595C114.952 347.111 120.404 350.612 125.928 349.405L200.892 333.001C206.408 331.793 209.91 326.341 208.703 320.817C207.496 315.301 202.043 311.799 196.519 313.006Z" fill="#D18B00" />
    <path d="M84.4449 207.663L214.379 179.235L253.744 359.142L193.777 372.261C182.737 374.676 175.75 385.588 178.164 396.62L195.56 476.117C203.323 481.801 209.119 490.236 211.341 500.373C215.362 518.768 206.328 536.979 190.428 545.341C182.833 543.415 175.342 541.152 167.987 538.57C155.931 534.333 130.989 516.098 130.941 515.874L105.454 399.378C104.023 392.847 99.4985 387.427 93.3188 384.868C78.3851 378.673 66.6253 365.522 62.9078 348.526L45.416 268.565C39.3801 240.968 56.856 213.699 84.4529 207.655L84.4449 207.663Z" fill="#FEB300" />
    <path d="M167.979 538.578C155.923 534.341 144.219 529.232 132.955 523.325C132.308 521.574 131.78 519.759 131.364 517.88C131.268 517.433 104.439 399.602 104.439 399.602C103.008 393.071 98.483 387.651 92.3033 385.092C77.3696 378.897 65.6098 365.746 61.8923 348.75L44.4005 268.789C40.1874 249.53 48.4297 230.208 62.5639 218.376C62.6918 221.877 63.1315 225.419 63.9069 228.961L84.1329 321.4C88.434 341.043 102.033 356.256 119.293 363.411C126.432 366.369 131.668 372.637 133.323 380.192L167.979 538.57V538.578Z" fill="#EA9C00" />
    <path d="M104.447 399.594C103.016 393.063 98.4908 387.643 92.3111 385.084C77.3774 378.889 65.6176 365.738 61.9002 348.742L44.4083 268.781C40.1952 249.522 48.4375 230.2 62.5717 218.368C62.6996 221.869 63.1393 225.411 63.9148 228.953L84.1408 321.393C88.4418 341.035 102.04 356.248 119.3 363.403C126.439 366.361 131.676 372.629 133.331 380.184" fill="#EA9C00" />
</svg>