<?xml version="1.0" encoding="iso-8859-1"?>
<!-- Generator: Adobe Illustrator 19.0.0, SVG Export Plug-In . SVG Version: 6.00 Build 0)  -->
<svg version="1.1" id="Capa_1" xmlns="http://www.w3.org/2000/svg" xmlns:xlink="http://www.w3.org/1999/xlink" x="0px" y="0px"
	 viewBox="0 0 512 512" style="enable-background:new 0 0 512 512;" xml:space="preserve">
<path style="fill:#FFDA68;" d="M407.624,407.625c64.504-64.504,91.977-122.077,103.666-159.015
	c2.522-7.967-1.893-16.47-9.861-18.991c-7.971-2.524-16.47,1.894-18.991,9.861c-2.936,9.277-6.991,20.006-12.567,31.928
	c0.363-5.09,0.559-10.227,0.559-15.408c0-91.22-21.283-151.358-39.137-185.743c-3.851-7.417-12.984-10.307-20.402-6.456
	c-7.417,3.85-10.308,12.985-6.456,20.402c4.513,8.694,9.267,19.227,13.781,31.711c-3.014-3.485-6.147-6.866-9.376-10.15
	c-0.375-0.479-0.773-0.946-1.214-1.387C343.12,39.872,285.548,12.399,248.61,0.71c-7.971-2.524-16.47,1.893-18.991,9.861
	c-2.522,7.967,1.893,16.47,9.861,18.991c9.277,2.936,20.006,6.991,31.928,12.567c-5.09-0.363-10.227-0.559-15.408-0.559
	c-91.22,0-151.358,21.283-185.743,39.137c-7.417,3.85-10.308,12.985-6.456,20.402c2.694,5.189,7.973,8.162,13.442,8.162
	c2.348,0,4.731-0.549,6.959-1.705c8.694-4.513,19.227-9.267,31.711-13.781c-3.486,3.014-6.866,6.147-10.151,9.377
	c-0.478,0.375-0.945,0.772-1.386,1.213C39.872,168.88,12.398,226.452,0.71,263.39c-2.522,7.967,1.893,16.47,9.861,18.991
	c1.519,0.481,3.057,0.709,4.569,0.709c6.422,0,12.382-4.122,14.422-10.571c2.936-9.277,6.991-20.006,12.567-31.928
	c-0.363,5.09-0.559,10.227-0.559,15.408c0,91.22,21.283,151.358,39.137,185.743c2.694,5.189,7.973,8.162,13.442,8.162
	c2.348,0,4.731-0.549,6.959-1.705c7.417-3.85,10.308-12.985,6.456-20.402c-4.513-8.694-9.267-19.227-13.781-31.711
	c3.014,3.485,6.147,6.866,9.376,10.15c0.375,0.479,0.773,0.946,1.214,1.387c64.504,64.504,122.077,91.977,159.015,103.666
	c1.519,0.481,3.057,0.709,4.569,0.709c6.422,0,12.382-4.122,14.422-10.571c2.522-7.967-1.893-16.47-9.861-18.991
	c-9.277-2.936-20.006-6.991-31.928-12.567c5.09,0.363,10.227,0.559,15.408,0.559c91.22,0,151.358-21.283,185.743-39.137
	c7.417-3.85,10.308-12.985,6.456-20.402c-3.851-7.417-12.986-10.306-20.402-6.456c-8.694,4.513-19.227,9.267-31.711,13.781
	c3.486-3.014,6.866-6.147,10.15-9.378C406.717,408.463,407.183,408.066,407.624,407.625z"/>
<g>
	<path style="fill:#FFA426;" d="M501.429,229.619c-7.971-2.524-16.47,1.894-18.991,9.861c-2.936,9.277-6.991,20.006-12.567,31.928
		c0.363-5.09,0.559-10.227,0.559-15.408c0-91.22-21.283-151.358-39.137-185.743c-3.851-7.417-12.984-10.307-20.402-6.456
		c-7.417,3.85-10.308,12.985-6.456,20.402c4.513,8.694,9.267,19.227,13.781,31.711c-3.014-3.485-6.147-6.866-9.376-10.15
		c-0.375-0.479-0.773-0.946-1.214-1.387C347.271,44.023,292.989,16.091,255.997,3.172v32.302c4.881,1.938,10.017,4.134,15.411,6.657
		c-5.09-0.363-10.227-0.559-15.408-0.559c-0.001,0-0.002,0-0.003,0V470.43c0.001,0,0.002,0,0.003,0
		c91.22,0,151.358-21.283,185.743-39.137c7.417-3.85,10.308-12.985,6.456-20.402c-3.851-7.417-12.986-10.306-20.402-6.456
		c-8.694,4.513-19.227,9.267-31.711,13.781c3.486-3.014,6.866-6.147,10.15-9.377c0.479-0.375,0.946-0.773,1.387-1.214
		c64.504-64.504,91.977-122.077,103.666-159.015C513.812,240.643,509.396,232.14,501.429,229.619z"/>
	<path style="fill:#FFA426;" d="M207.466,180.946c-3.873,0-7.745-1.478-10.699-4.433l-25.766-25.766
		c-5.909-5.908-5.909-15.49,0-21.399c5.908-5.908,15.49-5.908,21.399,0l25.766,25.766c5.909,5.908,5.909,15.49,0,21.399
		C215.21,179.468,211.338,180.946,207.466,180.946z"/>
	<path style="fill:#FFA426;" d="M205.322,387.084c-3.873,0-7.745-1.478-10.699-4.433l-25.766-25.766
		c-5.909-5.908-5.909-15.49,0-21.399c5.908-5.908,15.49-5.908,21.399,0l25.766,25.766c5.909,5.908,5.909,15.49,0,21.399
		C213.066,385.606,209.193,387.084,205.322,387.084z"/>
	<path style="fill:#FFA426;" d="M273.316,296.195c-3.873,0-7.745-1.477-10.699-4.433l-25.766-25.767
		c-5.909-5.909-5.909-15.49,0-21.399s15.491-5.91,21.399,0l25.766,25.767c5.909,5.909,5.909,15.49,0,21.399
		C281.062,294.717,277.188,296.195,273.316,296.195z"/>
	<path style="fill:#FFA426;" d="M131.99,280.536c-3.873,0-7.745-1.478-10.699-4.433c-5.909-5.908-5.909-15.49,0-21.399
		l25.767-25.767c5.908-5.908,15.49-5.908,21.399,0c5.909,5.908,5.909,15.49,0,21.399l-25.767,25.767
		C139.735,279.058,135.863,280.536,131.99,280.536z"/>
</g>
<g>
	<path style="fill:#FE6A16;" d="M380.009,271.098c-3.873,0-7.745-1.477-10.699-4.433L343.543,240.9
		c-5.909-5.908-5.909-15.489,0-21.399c5.908-5.908,15.49-5.91,21.399,0l25.767,25.766c5.909,5.908,5.909,15.489,0,21.399
		C387.754,269.62,383.881,271.098,380.009,271.098z"/>
	<path style="fill:#FE6A16;" d="M312.795,379.09c-3.873,0-7.745-1.478-10.699-4.433c-5.909-5.908-5.909-15.49,0-21.399
		l25.766-25.766c5.908-5.908,15.49-5.908,21.399,0c5.909,5.908,5.909,15.49,0,21.399l-25.766,25.766
		C320.539,377.612,316.666,379.09,312.795,379.09z"/>
	<path style="fill:#FE6A16;" d="M311.118,187.736c-3.873,0-7.745-1.478-10.699-4.433c-5.909-5.908-5.909-15.49,0-21.399
		l25.766-25.766c5.908-5.908,15.49-5.908,21.399,0c5.909,5.908,5.909,15.49,0,21.399l-25.766,25.766
		C318.863,186.259,314.991,187.736,311.118,187.736z"/>
</g>
<path style="fill:#FFA426;" d="M267.959,512c6.422,0,12.382-4.122,14.422-10.571c2.522-7.967-1.893-16.47-9.861-18.991
	c-5.081-1.608-10.613-3.567-16.524-5.912v32.302c2.546,0.89,5.015,1.711,7.393,2.463C264.909,511.771,266.447,512,267.959,512z"/>
<path style="fill:#FE6A16;" d="M258.25,244.598c-0.702-0.703-1.46-1.315-2.254-1.851v42.396l6.621,6.621
	c2.955,2.956,6.827,4.433,10.699,4.433s7.745-1.478,10.699-4.433c5.909-5.908,5.909-15.489,0-21.399L258.25,244.598z"/>
<g>
</g>
<g>
</g>
<g>
</g>
<g>
</g>
<g>
</g>
<g>
</g>
<g>
</g>
<g>
</g>
<g>
</g>
<g>
</g>
<g>
</g>
<g>
</g>
<g>
</g>
<g>
</g>
<g>
</g>
</svg>
