<svg width="1440" height="255" viewBox="0 0 1440 255" fill="none" xmlns="http://www.w3.org/2000/svg">
    <path d="M0 57.4475L48 82.1673C96 106.713 192 156.153 288 158.068C384 160.157 480 114.895 576 81.471C672 48.221 768 26.6348 864 41.2578C960 55.7067 1056 106.191 1152 105.32C1248 104.45 1344 52.225 1392 26.1125L1440 0V254.944H1392C1344 254.944 1248 254.944 1152 254.944C1056 254.944 960 254.944 864 254.944C768 254.944 672 254.944 576 254.944C480 254.944 384 254.944 288 254.944C192 254.944 96 254.944 48 254.944H0V57.4475Z" fill="#fe9200" />
</svg>
