<?xml version="1.0" encoding="UTF-8"?>
<svg width="128px" height="128px" viewBox="0 0 128 128" version="1.1" xmlns="http://www.w3.org/2000/svg" xmlns:xlink="http://www.w3.org/1999/xlink">
    <!-- Generator: Sketch 47.1 (45422) - http://www.bohemiancoding.com/sketch -->
    <title>Facebook</title>
    <desc>Created with Sketch.</desc>
    <defs></defs>
    <g id="Page-2" stroke="none" stroke-width="1" fill="none" fill-rule="evenodd">
        <g id="Artboard" transform="translate(-658.000000, -885.000000)" fill-rule="nonzero">
            <g id="Facebook" transform="translate(658.000000, 885.000000)">
                <circle id="facebook-back" fill="#3F51B5" cx="64" cy="64" r="64"></circle>
                <path d="M95.1367,29 L32.8638,29 C30.7295,29 29,30.729 29,32.8638 L29,95.1367 C29,97.2705 30.7295,99 32.8638,99 L66.3887,99 L66.3887,71.8926 L57.2666,71.8926 L57.2666,61.3276 L66.3887,61.3276 L66.3887,53.5371 C66.3887,44.4956 71.9111,39.5723 79.9775,39.5723 C83.8398,39.5723 87.1602,39.8599 88.1279,39.9888 L88.1279,49.4375 L82.5352,49.4399 C78.1475,49.4399 77.2988,51.5244 77.2988,54.583 L77.2988,61.3276 L87.7598,61.3276 L86.3975,71.8926 L77.2988,71.8926 L77.2988,99 L95.1367,99 C97.2705,99 99,97.2705 99,95.1367 L99,32.8638 C99,30.729 97.2705,29 95.1367,29 Z" id="facebook-facebook" fill="#FFFFFF"></path>
            </g>
        </g>
    </g>
</svg>