<?xml version="1.0" encoding="UTF-8"?>
<svg width="128px" height="128px" viewBox="0 0 128 128" version="1.1" xmlns="http://www.w3.org/2000/svg" xmlns:xlink="http://www.w3.org/1999/xlink">
    <!-- Generator: Sketch 47.1 (45422) - http://www.bohemiancoding.com/sketch -->
    <title>Instagram</title>
    <desc>Created with Sketch.</desc>
    <defs></defs>
    <g id="Page-2" stroke="none" stroke-width="1" fill="none" fill-rule="evenodd">
        <g id="Artboard" transform="translate(-900.000000, -664.000000)">
            <g id="Instagram" transform="translate(900.000000, 664.000000)">
                <circle id="instagram-back" fill="#3F51B5" fill-rule="nonzero" cx="64" cy="64" r="64"></circle>
                <path d="M91.5713,58.4829 L85.3311,58.4829 C85.7852,60.248 86.0547,62.0918 86.0547,63.9985 C86.0547,76.1816 76.1797,86.0547 63.9995,86.0547 C51.8198,86.0547 41.9453,76.1816 41.9453,63.9985 C41.9453,62.0918 42.2148,60.248 42.6699,58.4829 L36.4292,58.4829 L36.4292,88.8115 C36.4292,90.332 37.6641,91.5664 39.189,91.5664 L88.8105,91.5664 C90.3359,91.5664 91.5713,90.332 91.5713,88.8115 L91.5713,58.4829 Z M91.5713,39.186 C91.5713,37.6641 90.3359,36.4292 88.8105,36.4292 L80.542,36.4292 C79.0195,36.4292 77.7852,37.6641 77.7852,39.186 L77.7852,47.458 C77.7852,48.98 79.0195,50.2148 80.542,50.2148 L88.8105,50.2148 C90.3359,50.2148 91.5713,48.98 91.5713,47.458 L91.5713,39.186 L91.5713,39.186 Z M63.9995,50.2148 C56.3862,50.2148 50.2148,56.3853 50.2148,63.9985 C50.2148,71.6113 56.3862,77.7852 63.9995,77.7852 C71.6133,77.7852 77.7852,71.6113 77.7852,63.9985 C77.7852,56.3853 71.6133,50.2148 63.9995,50.2148 L63.9995,50.2148 Z M91.5713,99.8398 L36.4292,99.8398 C31.8628,99.8398 28.1602,96.1357 28.1602,91.5664 L28.1602,36.4292 C28.1602,31.8623 31.8628,28.1602 36.4292,28.1602 L91.5713,28.1602 C96.1387,28.1602 99.8398,31.8623 99.8398,36.4292 L99.8398,91.5664 C99.8398,96.1357 96.1387,99.8398 91.5713,99.8398 L91.5713,99.8398 Z" id="instagram-instagram" fill="#FFFFFF"></path>
            </g>
        </g>
    </g>
</svg>