<?xml version="1.0" encoding="UTF-8"?>
<svg width="128px" height="128px" viewBox="0 0 128 128" version="1.1" xmlns="http://www.w3.org/2000/svg" xmlns:xlink="http://www.w3.org/1999/xlink">
    <!-- Generator: Sketch 47.1 (45422) - http://www.bohemiancoding.com/sketch -->
    <title>Snapchat</title>
    <desc>Created with Sketch.</desc>
    <defs></defs>
    <g id="Page-2" stroke="none" stroke-width="1" fill="none" fill-rule="evenodd">
        <g id="Artboard" transform="translate(-900.000000, -472.000000)" fill-rule="nonzero">
            <g id="Snapchat" transform="translate(900.000000, 472.000000)">
                <circle id="snapchat-back" fill="#3F51B5" cx="64" cy="64" r="64"></circle>
                <g id="snapchat-snapchat" transform="translate(29.000000, 31.000000)" fill="#FFFFFF">
                    <path d="M35.4412304,66 C35.261029,66 35.0838194,65.9950915 34.9065101,65.9872779 L34.9065101,65.9872779 C34.7935227,65.9950915 34.6757486,66 34.5568776,66 C30.4101526,66 27.7486177,64.1100154 25.1746406,62.2825395 C23.3973587,61.0206465 21.7203993,59.8300774 19.7443675,59.4994027 C18.7802355,59.339024 17.8199927,59.2567811 16.892958,59.2567811 C15.221284,59.2567811 13.9031316,59.5170334 12.9409941,59.7058616 C12.3566112,59.8212621 11.852207,59.9191322 11.4684689,59.9191322 C11.0681766,59.9191322 10.6333798,59.8329825 10.4449014,59.185357 C10.281354,58.6238812 10.1624829,58.0809376 10.0480995,57.5556247 C9.75441216,56.2026734 9.54608864,55.3711283 8.98125168,55.284077 C2.40465077,54.2647055 0.52216009,52.8716846 0.102421611,51.8855708 C0.0430858078,51.7428228 0.00898018654,51.6018778 0.00120171151,51.461033 C-0.0202389568,51.0824751 0.247520087,50.7478937 0.620587717,50.6862866 C10.7312091,49.0134795 15.2655614,38.6330395 15.4535413,38.1928746 C15.4584277,38.1801525 15.4642117,38.1684321 15.4690982,38.1567117 C16.0884842,36.8966219 16.20925,35.8030213 15.8313956,34.9068639 C15.1370172,33.2644095 12.8737801,32.541954 11.375925,32.065526 C11.0097384,31.9486228 10.6621004,31.8380306 10.3884576,31.7294419 C7.39863119,30.5428798 7.14981971,29.3239615 7.26769352,28.7036835 C7.46783967,27.6452441 8.87604282,26.9076623 10.0144924,26.9076623 C10.3261301,26.9076623 10.6021662,26.963359 10.8325287,27.0719478 C12.1774071,27.704447 13.3889545,28.0248037 14.4353588,28.0248037 C15.8790637,28.0248037 16.5102172,27.4153445 16.5871044,27.3351051 C16.5501068,26.6479108 16.5053307,25.929863 16.4585601,25.188775 C16.1561968,20.3870302 15.7836278,14.4210621 17.2960426,11.0152432 C21.8280015,0.806100906 31.4405014,0.0132229799 34.2783483,0.0132229799 C34.3514461,0.0132229799 35.5230041,0.000500870452 35.5230041,0.000500870452 L35.6905404,0 C38.5351687,0 48.167713,0.794380537 52.7029629,11.0089322 C54.2163749,14.4161535 53.8414125,20.3880319 53.5405451,25.1863709 L53.5278801,25.394733 C53.485996,26.0628942 53.4451091,26.7120223 53.4120008,27.3342035 C53.4840015,27.4080318 54.0634979,27.9690067 55.3742707,28.0188934 L55.3752679,28.0188934 C56.3696163,27.9808273 57.5148472,27.6623739 58.7701734,27.0719478 C59.1383545,26.8993478 59.5473228,26.8625839 59.8248548,26.8625839 C60.2494798,26.8625839 60.680886,26.9453277 61.0382969,27.0949878 L61.0597376,27.104304 C62.0755266,27.4657321 62.740686,28.1803741 62.7552457,28.927773 C62.7679106,29.6310953 62.2332901,30.6896349 59.6096503,31.7294419 C59.3388996,31.8371291 58.9912616,31.9471202 58.6231801,32.065526 C57.1243278,32.541954 54.862088,33.2644095 54.1687068,34.9068639 C53.7888579,35.8030213 53.910621,36.8957203 54.5290097,38.15571 C54.5347937,38.1674304 54.5406774,38.1791507 54.5465612,38.1928746 C54.7335437,38.6330395 59.2639071,49.0104743 69.3795147,50.6852849 C69.7524826,50.7468919 70.0193441,51.0814734 69.9989007,51.461033 C69.990125,51.6038813 69.9570166,51.7467295 69.8946891,51.8855708 C69.4778426,52.8658745 67.5973464,54.2559903 61.0178535,55.2772652 C60.4803409,55.3604097 60.2719177,56.0628304 59.9515043,57.5389958 C59.8346278,58.0760291 59.7158564,58.6033455 59.554104,59.1580094 C59.413892,59.639346 59.1149194,59.864337 58.6124099,59.864337 L58.5306362,59.864337 C58.182001,59.864337 57.6862728,59.8017282 57.0581111,59.6784138 C55.9449914,59.4593331 54.6955489,59.2567811 53.1071444,59.2567811 C52.1790128,59.2567811 51.21877,59.339024 50.2537405,59.4994027 C48.2797031,59.8300774 46.6036412,61.018643 44.8302486,62.2786327 C42.2514847,64.1100154 39.5898501,66 35.4412304,66 Z" id="Shape"></path>
                </g>
            </g>
        </g>
    </g>
</svg>