<?xml version="1.0" encoding="UTF-8"?>
<svg width="128px" height="128px" viewBox="0 0 128 128" version="1.1" xmlns="http://www.w3.org/2000/svg" xmlns:xlink="http://www.w3.org/1999/xlink">
    <!-- Generator: Sketch 47.1 (45422) - http://www.bohemiancoding.com/sketch -->
    <title>Twitter</title>
    <desc>Created with Sketch.</desc>
    <defs></defs>
    <g id="Page-2" stroke="none" stroke-width="1" fill="none" fill-rule="evenodd">
        <g id="Artboard" transform="translate(-188.000000, -472.000000)" fill-rule="nonzero">
            <g id="Twitter" transform="translate(188.000000, 472.000000)">
                <circle id="twitter-back" fill="#3F51B5" cx="64" cy="64" r="64"></circle>
                <path d="M100,41.8656698 C97.3515142,43.0306084 94.5048466,43.8171908 91.5160464,44.1711529 C94.564713,42.358628 96.9081412,39.4892948 98.0107478,36.0700508 C95.1572498,37.747861 91.9956808,38.9671634 88.6311084,39.6235116 C85.9365175,36.7774772 82.0971322,35 77.8487268,35 C69.6894179,35 63.0764904,41.5555174 63.0764904,49.6414853 C63.0764904,50.7897961 63.2073728,51.9070418 63.4589925,52.9785861 C51.1822611,52.3679393 40.2978253,46.5387661 33.0125057,37.6802548 C31.7407463,39.8422612 31.0124052,42.3577319 31.0124052,45.041372 C31.0124052,50.1208027 33.6202099,54.6023313 37.5836472,57.2281226 C35.1621717,57.1527501 32.8844357,56.4935144 30.8931746,55.3967795 C30.8917684,55.4580135 30.8917684,55.5192474 30.8917684,55.581477 C30.8917684,62.6756541 35.9837276,68.5933427 42.7412988,69.9389961 C41.5014816,70.2735425 40.1962734,70.4524652 38.8494802,70.4524652 C37.8975441,70.4524652 36.9720255,70.3600666 36.0700116,70.1899059 C37.9499774,76.0064341 43.404952,80.2399403 49.869218,80.3576289 C44.8135202,84.2858614 38.4443775,86.6262927 31.5229772,86.6262927 C30.3306715,86.6262927 29.1554417,86.5572925 28,86.4220799 C34.5373914,90.5769278 42.301341,93 50.6436643,93 C77.814374,93 92.6724926,70.6887386 92.6724926,51.339209 C92.6724926,50.7042677 92.6578273,50.0732095 92.6294008,49.4450388 C95.5152428,47.3808075 98.0204912,44.8022111 100,41.8656698 Z" id="twitter-twitter" fill="#FFFFFF"></path>
            </g>
        </g>
    </g>
</svg>