<svg id="Layer_1" enable-background="new 0 0 512 512" height="512" viewBox="0 0 512 512" width="512" xmlns="http://www.w3.org/2000/svg"><path d="m438.748 237.11-9.063-28.599c31.292-9.915 52.315-38.653 52.315-71.511v-75h-45v-15c0-8.284 6.716-15 15-15h60v105c0 22.753-7.16 44.404-20.705 62.614-13.273 17.843-31.442 30.809-52.547 37.496z" fill="#fdbf00"/><path d="m73.251 237.11c-21.104-6.688-39.274-19.653-52.546-37.496-13.545-18.21-20.705-39.862-20.705-62.614v-105h60c8.284 0 15 6.716 15 15v15h-45v75c0 32.858 21.023 61.596 52.314 71.512z" fill="#ffda2d"/><path d="m376 32-15 165v185.056l44.889-43.954 45.111 45.111v-351.213z" fill="#ff641a"/><path d="m136 32h-75v350.056l44.889-43.954 45.111 45.111v-186.213z" fill="#ff9100"/><path d="m391 197v-197h-270v197c0 57.68 36.46 108.46 90 127.32v97.68h-41.46c-26.76 0-48.54 21.78-48.54 48.54v41.46h270v-41.46c0-26.76-21.78-48.54-48.54-48.54h-41.46v-97.68c53.54-18.86 90-69.65 90-127.32z" fill="#ffda2d"/><path d="m301 324.32v97.68h41.46c26.76 0 48.54 21.78 48.54 48.54v41.46h-135v-512h135v197c0 57.67-36.46 108.46-90 127.32z" fill="#fdbf00"/><path d="m348.79 118.33-64.39-9.13-28.4-56.18-28.4 56.18-64.39 9.13 46.62 44.37-10.91 62.12 57.08-29.3 57.08 29.3-10.91-62.12z" fill="#fdbf00"/><path d="m302.17 162.7 10.91 62.12-57.08-29.3v-142.5l28.4 56.18 64.39 9.13z" fill="#ff9100"/></svg>